<?xml version="1.0" standalone="no"?>
<!DOCTYPE svg PUBLIC "-//W3C//DTD SVG 20010904//EN"
 "http://www.w3.org/TR/2001/REC-SVG-20010904/DTD/svg10.dtd">
<svg version="1.0" xmlns="http://www.w3.org/2000/svg"
 width="3400.000000pt" height="1251.000000pt" viewBox="0 0 3400.000000 1251.000000"
 preserveAspectRatio="xMidYMid meet">

<g transform="translate(0.000000,1251.000000) scale(0.100000,-0.100000)"
fill="#000000" stroke="none">
<path d="M5482 10303 c-98 -109 -218 -243 -266 -297 l-87 -100 39 -40 c63 -67
259 -282 381 -418 63 -71 118 -128 122 -128 6 0 483 518 522 567 l18 23 -167
188 c-241 268 -365 402 -374 402 -5 0 -89 -89 -188 -197z"/>
<path d="M28798 9716 l-378 -80 0 -35 c0 -34 3 -37 55 -60 66 -28 129 -88 147
-139 19 -55 19 -2498 0 -2592 -22 -105 -69 -174 -134 -199 -23 -9 -28 -16 -28
-46 l0 -35 450 0 450 0 0 35 c0 30 -5 37 -32 49 -43 18 -73 48 -97 94 -47 93
-45 30 -51 1602 l-5 1486 -377 -80z"/>
<path d="M13092 9578 c3 -29 7 -33 38 -39 88 -14 165 -85 221 -202 71 -151 69
-108 69 -1268 0 -905 -2 -1050 -16 -1116 -39 -189 -136 -315 -265 -346 -46
-11 -49 -14 -49 -44 l0 -33 480 0 480 0 0 1540 0 1540 -481 0 -480 0 3 -32z"/>
<path d="M14330 9578 l0 -35 88 -6 c274 -20 512 -154 654 -369 115 -173 186
-388 230 -698 18 -130 18 -690 0 -820 -61 -435 -196 -717 -422 -886 -104 -77
-271 -135 -444 -155 l-106 -12 0 -34 0 -35 63 6 c34 3 105 8 157 11 52 4 152
15 222 25 689 104 1108 438 1253 1000 36 138 47 231 52 426 6 215 -4 342 -39
503 -88 412 -333 727 -703 906 -238 115 -548 186 -877 202 l-128 6 0 -35z"/>
<path d="M4725 9426 c-6 -8 -101 -127 -213 -266 -112 -139 -202 -255 -200
-260 9 -23 550 -542 557 -534 5 5 75 90 156 189 82 99 175 210 207 247 42 48
57 72 51 82 -11 20 -533 556 -541 556 -4 0 -12 -6 -17 -14z"/>
<path d="M6336 9165 c-152 -153 -276 -282 -276 -287 0 -11 421 -518 429 -517
3 0 131 122 283 272 l278 272 -201 250 c-110 138 -208 258 -219 269 -18 18
-24 12 -294 -259z"/>
<path d="M25120 9189 c-124 -21 -240 -41 -257 -44 l-33 -6 0 -294 0 -295 -116
0 c-116 0 -116 0 -110 -22 3 -13 6 -29 6 -35 0 -10 29 -13 110 -13 l110 0 0
-703 c0 -430 4 -735 11 -787 22 -181 64 -286 146 -368 89 -90 204 -127 388
-125 129 1 222 26 343 94 85 47 199 150 252 229 54 79 57 96 23 113 -27 14
-28 14 -64 -27 -20 -23 -61 -55 -90 -71 -50 -28 -62 -30 -154 -30 -92 0 -104
2 -155 30 -64 35 -112 95 -137 168 -16 47 -18 118 -21 765 l-3 712 256 0 c197
0 255 3 255 13 0 6 3 22 6 35 l6 22 -261 0 -261 0 0 340 c0 266 -3 340 -12
339 -7 -1 -114 -18 -238 -40z"/>
<path d="M17560 8557 c0 -29 7 -38 53 -70 153 -105 251 -365 264 -699 l6 -138
-432 0 -431 0 0 66 c0 90 26 256 56 362 54 190 177 386 264 422 25 10 30 18
30 46 0 40 -5 41 -118 18 -154 -32 -288 -91 -402 -179 -445 -342 -521 -1044
-163 -1512 210 -277 521 -411 863 -373 154 17 251 44 378 106 90 45 128 71
193 132 44 42 99 102 121 134 43 64 88 154 88 178 0 21 -63 56 -68 38 -3 -7
-30 -38 -61 -69 -148 -145 -441 -211 -666 -150 -189 52 -333 170 -418 341 -47
96 -81 208 -93 313 l-7 57 697 0 696 0 0 68 c0 247 -77 504 -195 654 -113 144
-319 249 -535 273 -30 3 -70 8 -87 11 -32 5 -33 4 -33 -29z"/>
<path d="M19013 8502 l-373 -86 0 -32 c0 -29 7 -37 71 -80 76 -50 121 -108
140 -176 6 -25 9 -267 7 -681 -3 -572 -5 -647 -20 -692 -21 -62 -66 -117 -113
-139 -30 -15 -35 -22 -35 -51 l0 -35 445 0 445 0 0 34 c0 30 -6 37 -45 60 -51
31 -86 83 -112 171 -16 55 -17 136 -21 928 -2 477 -6 867 -10 866 -4 -1 -175
-40 -379 -87z"/>
<path d="M19959 8579 c-121 -28 -251 -108 -361 -221 -43 -43 -78 -83 -78 -89
0 -5 9 -23 21 -38 l21 -28 56 33 c66 40 103 48 187 42 118 -10 208 -83 251
-203 17 -45 19 -100 22 -564 3 -523 -3 -675 -33 -762 -20 -57 -64 -112 -110
-133 -30 -15 -35 -22 -35 -51 l0 -35 450 0 450 0 0 35 c0 30 -5 37 -27 46 -57
21 -105 83 -134 174 -9 30 -14 205 -19 685 -8 715 -9 727 -76 867 -61 129
-164 206 -317 237 -81 17 -209 20 -268 5z"/>
<path d="M21160 8575 c-141 -35 -297 -134 -400 -256 l-41 -49 26 -34 26 -34
56 34 c67 40 104 48 187 42 103 -9 187 -62 231 -148 45 -89 47 -120 43 -735
-3 -506 -6 -586 -20 -628 -23 -68 -61 -120 -108 -146 -35 -19 -40 -27 -40 -57
l0 -34 445 0 445 0 0 35 c0 29 -5 36 -35 51 -39 18 -81 63 -97 103 -39 96 -41
122 -48 781 -6 566 -9 654 -25 715 -52 210 -159 319 -352 360 -84 18 -219 18
-293 0z"/>
<path d="M23110 8575 c-120 -19 -261 -67 -360 -122 -112 -63 -265 -213 -333
-329 -59 -100 -109 -239 -132 -367 -26 -143 -17 -384 18 -520 80 -303 282
-544 553 -657 86 -36 202 -66 292 -76 l62 -7 0 36 c0 34 -3 37 -41 47 -126 34
-195 140 -234 360 -27 156 -40 568 -27 857 19 391 52 542 140 637 28 30 115
76 145 76 13 0 17 9 17 40 0 22 -3 40 -7 39 -5 -1 -46 -7 -93 -14z"/>
<path d="M23400 8549 c0 -34 3 -37 33 -43 53 -10 120 -59 154 -112 40 -62 69
-152 89 -279 22 -133 31 -784 15 -988 -29 -359 -102 -512 -263 -551 -24 -5
-28 -11 -28 -42 l0 -37 61 7 c293 33 550 185 708 419 196 288 230 743 82 1087
-90 208 -266 390 -467 481 -85 39 -221 77 -311 87 l-73 8 0 -37z"/>
<path d="M27330 8556 c0 -30 6 -37 44 -60 158 -93 261 -358 282 -728 l7 -118
-436 0 -437 0 0 28 c1 54 20 219 36 297 48 235 156 439 273 516 42 27 51 37
51 62 l0 29 -57 -7 c-167 -21 -355 -100 -488 -205 -343 -273 -466 -818 -284
-1256 54 -130 125 -232 238 -344 198 -196 384 -274 656 -273 396 1 706 170
855 468 22 45 40 85 40 91 0 6 -15 17 -34 26 l-33 16 -35 -47 c-91 -122 -298
-203 -518 -203 -123 0 -203 18 -307 69 -218 106 -343 309 -387 626 l-5 37 701
0 700 0 -7 98 c-15 223 -59 400 -132 532 -53 96 -178 216 -278 267 -119 61
-212 86 -397 107 l-48 6 0 -34z"/>
<path d="M29740 8515 l0 -35 51 0 c75 0 126 -18 161 -58 28 -32 30 -40 26 -93
-9 -130 -103 -262 -449 -638 -134 -146 -244 -272 -243 -281 0 -21 408 -627
478 -712 31 -36 77 -80 103 -97 93 -62 110 -64 526 -69 l377 -4 0 34 0 33 -86
17 c-152 29 -247 94 -363 247 -51 67 -284 392 -544 758 l-87 123 89 102 c261
302 543 511 811 598 49 16 116 32 149 36 l61 7 0 33 0 34 -530 0 -530 0 0 -35z"/>
<path d="M5450 8221 l-221 -251 123 -133 c68 -73 166 -181 218 -240 51 -59 97
-107 101 -107 4 0 105 108 224 240 l217 241 -74 86 c-69 82 -199 229 -314 356
l-52 58 -222 -250z"/>
<path d="M3805 8252 c-117 -162 -255 -364 -255 -373 0 -6 337 -309 530 -476
l38 -32 43 62 c24 34 101 142 171 239 l128 177 -52 49 c-128 121 -514 452
-526 452 -4 -1 -38 -44 -77 -98z"/>
<path d="M7329 8247 c-68 -57 -197 -170 -286 -251 l-163 -147 86 -117 c47 -64
124 -172 172 -238 l87 -122 36 32 c20 17 117 103 215 191 99 88 212 187 251
220 71 59 72 60 56 85 -36 57 -318 450 -324 450 -3 0 -61 -47 -130 -103z"/>
<path d="M4707 7323 c-73 -93 -154 -195 -179 -228 l-45 -60 225 -230 c123
-126 228 -230 232 -230 4 0 54 61 111 135 56 74 138 180 183 234 l80 99 -227
224 c-125 123 -232 223 -237 223 -6 0 -70 -75 -143 -167z"/>
<path d="M6448 7443 c-136 -125 -320 -303 -363 -350 l-46 -52 54 -68 c29 -37
109 -140 177 -228 67 -88 127 -164 131 -170 6 -6 97 78 239 220 127 127 230
233 230 236 0 6 -254 337 -324 421 -17 21 -35 38 -39 38 -4 0 -31 -21 -59 -47z"/>
<path d="M3156 7282 c-42 -69 -231 -393 -244 -418 -11 -20 -5 -27 66 -80 42
-32 173 -134 290 -227 119 -95 217 -166 222 -161 4 5 61 97 125 204 65 107
126 209 137 226 l19 32 -158 129 c-184 150 -343 278 -393 316 l-36 26 -28 -47z"/>
<path d="M7888 7126 c-139 -112 -268 -217 -287 -233 l-35 -30 101 -164 c55
-90 118 -194 139 -231 22 -37 42 -68 46 -68 4 0 97 71 206 158 108 86 237 186
285 222 48 35 87 68 87 74 0 11 -22 50 -163 289 -62 103 -115 187 -118 187 -4
0 -121 -92 -261 -204z"/>
<path d="M5502 6491 c-89 -98 -181 -199 -203 -225 l-41 -46 100 -107 c55 -60
146 -162 203 -228 56 -66 105 -121 109 -123 3 -1 42 39 85 90 44 51 135 155
203 231 l124 138 -33 37 c-18 20 -93 104 -168 186 -75 82 -151 167 -169 188
-19 21 -37 38 -40 37 -4 0 -80 -80 -170 -178z"/>
<path d="M4090 6496 c-85 -116 -260 -390 -253 -396 71 -59 321 -278 392 -344
l94 -87 20 33 c11 18 77 118 146 222 l125 189 -65 61 c-90 85 -283 261 -356
324 l-62 53 -41 -55z"/>
<path d="M7040 6393 c-186 -165 -300 -273 -300 -284 0 -6 273 -424 284 -437 2
-1 114 97 249 217 l246 220 -138 208 c-77 115 -145 214 -153 220 -11 9 -50
-20 -188 -144z"/>
<path d="M4828 5704 c-130 -165 -218 -281 -218 -291 0 -4 69 -77 153 -163 84
-85 182 -187 219 -227 l66 -71 90 126 c49 70 119 165 155 211 l66 85 -89 95
c-49 53 -147 154 -218 225 l-130 129 -94 -119z"/>
<path d="M6202 5599 l-220 -221 112 -151 c62 -84 132 -180 155 -213 l43 -62
222 225 c121 124 222 229 224 234 5 12 -299 409 -312 409 -2 0 -103 -99 -224
-221z"/>
<path d="M29843 5487 c-76 -34 -175 -299 -149 -401 8 -33 70 -102 109 -122 16
-9 30 -14 31 -12 2 2 15 39 30 83 37 104 73 175 140 274 l55 80 -35 30 c-64
57 -142 86 -181 68z"/>
<path d="M20860 5321 c-52 -20 -126 -53 -165 -72 l-70 -34 -325 -6 c-179 -4
-372 -12 -430 -18 -276 -30 -442 -79 -456 -136 -11 -45 53 -207 117 -294 l32
-45 18 37 c59 114 285 188 708 232 80 8 147 12 150 9 3 -3 -3 -20 -13 -37 -40
-69 -238 -471 -311 -632 -155 -342 -276 -651 -315 -805 -28 -109 -20 -140 53
-207 50 -45 161 -113 186 -113 7 0 11 23 11 63 0 191 239 848 582 1603 l63
139 40 7 c22 4 110 11 196 17 86 6 168 15 182 20 l26 10 -15 53 c-19 67 -85
208 -108 231 -25 24 -48 21 -156 -22z"/>
<path d="M14032 5244 c-44 -53 -142 -231 -211 -382 -221 -482 -381 -1026 -381
-1291 0 -78 3 -94 34 -156 42 -90 118 -175 154 -175 52 0 341 327 503 569 73
108 127 209 148 273 26 80 7 70 -90 -44 -165 -195 -510 -540 -525 -525 -4 4
34 199 57 292 9 37 26 65 66 108 152 166 380 510 512 776 76 151 95 210 87
266 -13 82 -128 228 -232 295 -63 39 -86 38 -122 -6z m188 -228 c0 -100 -140
-418 -337 -768 -30 -54 -57 -98 -58 -98 -9 0 88 279 157 450 76 190 205 450
223 450 10 0 15 -10 15 -34z"/>
<path d="M15932 5229 c-185 -328 -570 -1553 -549 -1746 5 -52 80 -161 139
-204 50 -35 58 -36 58 -5 0 13 3 37 6 54 l6 31 42 -28 c158 -108 241 -105 354
12 138 145 259 394 341 706 l27 104 84 23 c101 28 123 36 224 86 62 31 77 35
71 21 -52 -120 -115 -335 -146 -493 -28 -145 -32 -337 -8 -391 25 -54 77 -107
130 -135 73 -36 100 -33 148 22 44 50 131 213 181 339 17 44 34 82 36 84 2 2
1 -38 -3 -90 -5 -86 -4 -99 17 -139 29 -57 138 -167 175 -176 48 -12 77 7 145
98 147 196 319 587 308 699 -4 39 -24 49 -33 17 -11 -34 -100 -191 -169 -293
-67 -102 -174 -245 -182 -245 -11 0 8 104 43 243 49 198 145 471 215 616 57
119 59 126 41 139 -36 27 -112 62 -172 78 -57 16 -62 16 -79 1 -10 -10 -29
-39 -42 -66 l-22 -49 -72 48 c-89 59 -154 85 -201 77 -68 -11 -158 -97 -228
-217 l-26 -46 -113 -27 c-106 -25 -228 -46 -273 -47 -18 0 -20 7 -21 69 -1 52
-7 78 -23 105 -39 62 -164 156 -209 156 -48 0 -176 -158 -267 -328 -16 -28
-30 -51 -31 -49 -5 4 118 350 173 487 69 173 142 331 169 367 l24 32 -33 25
c-45 35 -140 77 -186 83 -37 5 -39 4 -69 -48z m1309 -798 l24 -19 -29 -89
c-49 -151 -343 -718 -417 -805 l-28 -33 0 30 c-1 76 79 359 156 554 93 238
185 381 245 381 14 0 36 -9 49 -19z m-1170 -274 c12 -33 9 -44 -36 -164 -56
-151 -116 -287 -158 -357 -95 -163 -149 -198 -232 -149 -19 11 -19 12 4 70 64
159 252 525 367 716 l29 47 7 -64 c3 -36 12 -80 19 -99z"/>
<path d="M18358 5253 c-189 -205 -526 -1082 -593 -1544 -24 -170 -21 -204 25
-296 45 -90 116 -173 148 -173 54 0 284 253 481 529 100 139 184 303 179 349
-3 31 -3 31 -70 -51 -125 -155 -521 -557 -548 -557 -7 0 35 218 61 313 7 28
31 63 73 107 185 197 500 705 575 927 23 69 16 120 -25 191 -56 95 -209 232
-261 232 -10 0 -31 -12 -45 -27z m178 -218 c10 -26 -24 -144 -82 -280 -78
-183 -298 -604 -310 -592 -13 13 166 483 258 677 93 197 119 235 134 195z"/>
<path d="M26767 5248 c-55 -73 -105 -161 -183 -323 -222 -459 -395 -1016 -411
-1323 l-6 -112 37 -74 c45 -93 118 -176 153 -176 64 0 413 406 565 658 59 99
100 195 96 228 -3 21 -15 10 -93 -83 -145 -173 -516 -546 -530 -532 -4 5 4 50
42 224 l25 120 61 64 c227 243 597 868 597 1009 0 86 -122 253 -237 325 -57
36 -86 35 -116 -5z m181 -256 c-7 -72 -64 -219 -166 -427 -76 -154 -219 -415
-227 -415 -7 0 83 255 152 430 83 211 210 470 231 470 12 0 14 -11 10 -58z"/>
<path d="M23256 5247 c-31 -46 -116 -238 -179 -404 -221 -574 -408 -1253 -384
-1383 9 -44 94 -158 145 -193 21 -15 41 -27 44 -27 3 0 15 27 27 60 32 86 126
284 206 430 81 149 235 403 241 397 2 -2 -7 -34 -21 -71 -46 -123 -114 -374
-126 -465 -11 -86 -10 -91 11 -126 39 -63 180 -155 241 -157 38 -1 67 27 134
127 128 194 265 533 265 657 0 27 -3 48 -7 48 -5 0 -29 -42 -55 -93 -87 -170
-338 -530 -338 -484 0 100 160 568 266 780 l44 87 -41 45 c-25 28 -71 60 -115
82 l-73 36 -36 -27 c-78 -60 -234 -267 -366 -488 -46 -76 -84 -136 -87 -134
-5 6 149 463 225 666 84 223 176 441 214 503 37 60 34 66 -75 119 -93 44 -138
49 -160 15z"/>
<path d="M12787 5218 c-297 -39 -676 -524 -832 -1063 -64 -223 -73 -441 -23
-582 81 -228 311 -389 528 -370 136 12 280 87 392 205 100 105 178 248 178
325 -1 18 -9 57 -20 87 -10 30 -17 57 -14 59 2 3 45 7 94 9 l90 4 -6 52 c-4
28 -13 66 -20 84 l-13 33 -218 -8 c-120 -4 -287 -8 -371 -7 l-154 1 7 -36 c9
-54 35 -131 57 -168 19 -31 23 -33 76 -33 32 0 113 12 182 25 69 14 131 25
138 25 9 0 -2 -30 -32 -85 -110 -207 -283 -366 -415 -382 -234 -27 -311 225
-194 631 117 408 397 839 618 951 79 40 162 46 190 15 17 -19 20 -36 19 -114
-1 -109 -31 -232 -100 -399 -25 -61 -48 -118 -51 -124 -9 -22 29 -14 82 16 62
35 178 157 224 234 84 143 112 277 73 354 -42 82 -165 181 -284 229 -80 33
-131 41 -201 32z"/>
<path d="M5589 4943 c-42 -49 -116 -138 -167 -199 l-91 -112 58 -68 c31 -38
106 -130 166 -204 60 -74 111 -136 115 -138 3 -1 34 34 69 78 34 44 109 137
167 207 91 110 103 128 91 142 -8 9 -82 98 -166 199 -84 100 -156 182 -160
182 -4 0 -41 -39 -82 -87z"/>
<path d="M21144 4638 c-188 -128 -414 -690 -414 -1031 0 -108 25 -165 109
-247 79 -77 157 -114 242 -115 64 0 69 2 125 46 193 149 474 595 474 750 0 46
-15 42 -53 -14 -138 -206 -481 -537 -589 -568 -27 -7 -36 -6 -52 11 -36 36
-20 190 40 388 13 45 28 82 33 82 5 0 15 -7 22 -17 18 -21 71 -43 106 -43 89
0 226 114 295 246 75 143 88 253 40 320 -69 94 -244 224 -303 224 -15 0 -48
-15 -75 -32z m210 -228 c-23 -183 -135 -357 -246 -385 l-27 -7 30 77 c77 200
214 415 239 375 6 -8 7 -35 4 -60z"/>
<path d="M22124 4638 c-183 -123 -408 -674 -416 -1019 -3 -117 18 -166 108
-255 106 -106 234 -149 320 -108 123 57 387 407 484 641 53 128 51 231 -3 146
-77 -121 -312 -377 -447 -486 -82 -66 -168 -111 -194 -101 -57 22 -23 267 75
536 95 264 251 527 281 475 23 -41 -23 -235 -93 -392 -22 -49 -43 -96 -46
-102 -10 -24 60 -14 112 16 167 97 269 310 209 437 -37 77 -252 244 -315 244
-15 0 -49 -15 -75 -32z"/>
<path d="M24218 4653 c-96 -109 -304 -815 -324 -1099 -7 -101 -2 -119 66 -209
41 -55 112 -110 133 -102 7 2 21 31 31 63 29 93 158 372 250 545 89 165 166
293 172 286 2 -2 -17 -60 -42 -128 -52 -141 -109 -354 -119 -445 -9 -73 5
-105 65 -157 55 -47 153 -98 190 -99 36 -1 59 18 115 97 88 123 216 400 266
573 20 69 26 162 11 162 -5 0 -25 -33 -45 -72 -53 -108 -166 -285 -263 -415
-47 -63 -88 -113 -90 -111 -6 6 34 174 66 280 41 134 150 409 207 522 l44 88
-51 50 c-29 28 -81 63 -116 80 -61 29 -66 29 -89 14 -80 -53 -295 -368 -431
-634 -35 -68 -64 -118 -64 -112 0 20 60 216 102 334 47 133 99 259 138 337 17
32 30 61 30 64 0 13 -101 67 -159 85 -77 24 -74 24 -93 3z"/>
<path d="M28530 4661 c-81 -25 -160 -92 -231 -197 l-47 -71 -99 -28 c-124 -35
-209 -54 -249 -55 -29 0 -32 3 -37 41 -9 65 -115 216 -190 270 -52 37 -111 39
-185 4 -212 -99 -441 -588 -459 -983 -6 -122 -6 -122 26 -186 76 -156 256
-252 376 -202 148 62 330 390 405 731 11 50 20 104 20 121 0 37 10 47 65 64
61 19 173 77 241 125 l61 42 -25 -76 c-26 -79 -40 -221 -28 -284 9 -46 57
-116 105 -151 l40 -29 -52 -24 c-154 -71 -167 -185 -36 -308 28 -26 49 -48 47
-49 -2 -2 -25 -9 -53 -16 -80 -20 -206 -85 -262 -134 -67 -60 -87 -111 -81
-204 18 -247 268 -409 514 -334 200 61 468 312 482 451 11 120 -113 254 -381
414 -53 32 -97 63 -97 68 0 22 77 57 138 63 34 3 75 12 90 20 116 60 219 203
282 390 l27 80 64 21 c84 29 160 68 234 120 63 44 144 125 164 164 l12 22 -38
-19 c-64 -33 -365 -122 -411 -122 -5 0 -18 20 -29 43 -23 48 -69 77 -122 77
-23 0 -40 10 -72 44 -50 56 -128 106 -160 105 -13 0 -35 -4 -49 -8z m151 -257
c-6 -32 -11 -81 -11 -110 0 -57 14 -80 56 -90 13 -3 24 -8 24 -10 0 -3 -12
-33 -26 -67 -36 -86 -108 -192 -148 -216 -45 -28 -100 -28 -120 1 -54 77 47
374 171 509 32 34 59 57 61 51 2 -6 -2 -37 -7 -68z m-1117 -89 c-25 -137 -4
-205 62 -205 32 0 33 -1 27 -32 -26 -143 -157 -458 -227 -550 -43 -56 -90 -85
-111 -68 -57 47 28 459 156 754 35 81 98 191 104 184 2 -2 -3 -39 -11 -83z
m877 -998 c98 -74 170 -203 153 -271 -21 -85 -227 -127 -342 -70 -122 60 -131
176 -21 279 41 38 136 95 161 95 3 0 26 -15 49 -33z"/>
<path d="M29488 4653 c-116 -132 -365 -976 -346 -1173 6 -60 63 -148 131 -201
59 -47 85 -49 132 -8 105 92 310 479 376 709 20 69 25 145 10 154 -5 4 -35
-42 -66 -101 -90 -171 -335 -531 -335 -493 0 7 11 63 25 125 55 246 186 620
281 806 24 47 44 88 44 92 0 15 -97 68 -159 87 -77 24 -74 24 -93 3z"/>
<path d="M30247 4640 c-176 -111 -396 -637 -414 -991 -6 -111 -5 -119 20 -173
54 -117 198 -223 318 -233 53 -5 63 -3 109 27 136 87 375 411 460 624 33 83
49 169 33 179 -6 4 -26 -18 -46 -47 -132 -198 -481 -536 -586 -566 -21 -6 -35
-4 -51 7 -21 15 -22 22 -18 112 3 65 15 134 37 217 41 151 43 155 73 127 53
-50 109 -54 193 -14 140 65 275 282 275 438 0 60 -8 81 -53 133 -71 83 -227
190 -279 190 -13 0 -45 -13 -71 -30z m208 -234 c-13 -114 -69 -237 -142 -312
-38 -39 -109 -81 -120 -71 -8 9 16 75 72 193 77 165 158 276 187 257 6 -3 7
-32 3 -67z"/>
<path d="M31220 4648 c-116 -57 -238 -228 -261 -368 -22 -136 1 -230 132 -526
94 -212 107 -264 70 -283 -26 -14 -96 7 -154 47 -64 45 -152 146 -187 215 -36
72 -46 59 -37 -46 16 -177 103 -373 191 -428 45 -29 145 -22 213 15 137 75
265 271 249 381 -3 22 -52 134 -109 249 -98 202 -102 212 -102 275 1 81 26
140 87 207 41 45 113 88 130 78 4 -3 8 -36 8 -74 0 -81 -13 -100 -71 -100 -48
0 -54 -16 -47 -128 5 -82 35 -168 63 -178 26 -10 64 24 113 101 42 66 53 76
107 99 82 36 177 98 278 181 47 39 84 71 83 73 -2 1 -29 -7 -62 -18 -32 -12
-99 -32 -149 -46 -49 -14 -98 -27 -108 -30 -16 -5 -18 -2 -12 15 14 44 8 81
-19 115 -35 46 -132 120 -212 162 -78 41 -129 44 -194 12z"/>
<path d="M14765 4629 c-165 -80 -338 -374 -424 -721 -37 -149 -53 -302 -39
-378 33 -187 267 -342 407 -271 122 63 249 255 339 512 34 95 82 300 82 346 0
28 5 31 83 61 104 40 217 106 285 167 29 26 51 49 50 51 -2 2 -69 -15 -148
-37 -80 -22 -170 -42 -201 -46 l-56 -6 -7 42 c-11 69 -114 218 -189 272 -49
36 -120 39 -182 8z m68 -311 c-25 -143 -5 -208 64 -208 28 0 33 -3 29 -17 -2
-10 -14 -54 -26 -97 -100 -365 -304 -662 -336 -490 -20 106 86 515 191 740 38
81 80 154 89 154 2 0 -3 -37 -11 -82z"/>
<path d="M25552 4630 c-218 -99 -463 -626 -466 -1005 -1 -107 2 -125 22 -167
75 -152 255 -250 376 -204 51 20 145 113 201 201 99 154 190 406 225 621 l11
72 47 17 c90 34 238 115 300 165 64 53 79 77 40 64 -105 -33 -272 -75 -324
-80 l-64 -7 0 37 c0 65 -136 252 -212 292 -38 20 -105 17 -156 -6z m69 -290
c-6 -28 -11 -82 -11 -120 0 -81 19 -110 71 -110 31 0 31 -1 24 -37 -14 -79
-88 -283 -144 -398 -84 -171 -164 -256 -198 -209 -59 81 88 648 228 879 18 30
35 53 37 50 2 -2 -1 -27 -7 -55z"/>
</g>
</svg>
